<svg width="45" height="47" viewBox="0 0 45 47" fill="none" xmlns="http://www.w3.org/2000/svg">
<path fill-rule="evenodd" clip-rule="evenodd" d="M1.5077 5.61919H10.5709L10.5589 5.47001V1.5798C10.5589 0.711484 11.5028 0 12.6627 0C13.8186 0 14.7665 0.715309 14.7665 1.5798V5.47001L14.7545 5.61919H30.1891L30.1771 5.47001V1.5798C30.1771 0.711484 31.121 0 32.2769 0C33.4328 0 34.3807 0.715309 34.3807 1.5798V5.47001L34.3687 5.61919H44.0118C44.4238 5.61919 44.7598 5.94051 44.7598 6.3345V13.7783C44.7598 14.1723 44.4238 14.4936 44.0118 14.4936H1.5077C1.09574 14.4898 0.759766 14.1685 0.759766 13.7745V6.33067C0.759766 5.93668 1.09574 5.61919 1.5077 5.61919ZM0.947749 16.1384H44.5758C44.6798 16.1384 44.7598 16.2188 44.7598 16.3144V46.824C44.7598 46.9197 44.6758 47 44.5758 47H0.947749C0.847758 47 0.759766 46.9197 0.759766 46.824V16.3182C0.759766 16.2188 0.843758 16.1384 0.947749 16.1384ZM39.6642 20.1817H34.1847C33.8528 20.1817 33.5848 20.4226 33.5848 20.7172V25.5905C33.5848 25.885 33.8528 26.126 34.1847 26.126H39.6682C40.0002 26.126 40.2722 25.885 40.2722 25.5905V20.7172C40.2682 20.4226 39.9962 20.1817 39.6642 20.1817ZM5.65532 28.6621H11.1348C11.4668 28.6621 11.7388 28.9031 11.7388 29.1976V34.0709C11.7388 34.3654 11.4668 34.6064 11.1348 34.6064H5.8433C5.51133 34.6064 5.24336 34.3654 5.24336 34.0709V29.0217C5.24336 28.7271 5.51533 28.4861 5.8433 28.4861L5.65532 28.6621ZM5.65532 37.1463H11.1348C11.4668 37.1463 11.7388 37.3873 11.7388 37.6819V42.5551C11.7388 42.8497 11.4668 43.0907 11.1348 43.0907H5.8393C5.50733 43.0907 5.23936 42.8497 5.23936 42.5551V37.6819C5.23936 37.3873 5.51133 37.1463 5.8393 37.1463H5.65532ZM5.65532 20.1817H11.1348C11.4668 20.1817 11.7388 20.4226 11.7388 20.7172V25.5905C11.7388 25.885 11.4668 26.126 11.1348 26.126H5.8393C5.50733 26.126 5.23936 25.885 5.23936 25.5905V20.7172C5.23936 20.4226 5.51133 20.1817 5.8393 20.1817H5.65532ZM15.1665 20.1817H20.65C20.9819 20.1817 21.2499 20.4226 21.2499 20.7172V25.5905C21.2499 25.885 20.9779 26.126 20.65 26.126H15.1665C14.8345 26.126 14.5625 25.885 14.5625 25.5905V20.7172C14.5625 20.4226 14.8345 20.1817 15.1665 20.1817ZM15.1665 28.6621H20.65C20.9819 28.6621 21.2499 28.9031 21.2499 29.1976V34.0709C21.2499 34.3654 20.9779 34.6064 20.65 34.6064H15.1665C14.8345 34.6064 14.5625 34.3654 14.5625 34.0709V29.0217C14.5625 28.7271 14.8345 28.4861 15.1665 28.4861V28.6621ZM15.1665 37.1463H20.65C20.9819 37.1463 21.2499 37.3873 21.2499 37.6819V42.5551C21.2499 42.8497 20.9779 43.0907 20.65 43.0907H15.1665C14.8345 43.0907 14.5625 42.8497 14.5625 42.5551V37.6819C14.5625 37.3873 14.8345 37.1463 15.1665 37.1463ZM24.6736 20.1817H30.1571C30.4891 20.1817 30.761 20.4226 30.761 20.7172V25.5905C30.761 25.885 30.4891 26.126 30.1571 26.126H24.6736C24.3416 26.126 24.0696 25.885 24.0696 25.5905V20.7172C24.0736 20.4226 24.3416 20.1817 24.6736 20.1817ZM24.6736 28.6621H30.1571C30.4891 28.6621 30.761 28.9031 30.761 29.1976V34.0709C30.761 34.3654 30.4891 34.6064 30.1571 34.6064H24.6736C24.3416 34.6064 24.0696 34.3654 24.0696 34.0709V29.0217C24.0696 28.7271 24.3416 28.4861 24.6736 28.4861V28.6621ZM39.6642 28.6621H34.1847C33.8528 28.6621 33.5848 28.9031 33.5848 29.1976V34.0709C33.5848 34.3654 33.8528 34.6064 34.1847 34.6064H39.6682C40.0002 34.6064 40.2722 34.3654 40.2722 34.0709V29.0178C40.2722 28.7233 40.0002 28.4823 39.6682 28.4823L39.6642 28.6621ZM39.6642 37.1463H34.1847C33.8528 37.1463 33.5848 37.3873 33.5848 37.6819V42.5551C33.5848 42.8497 33.8528 43.0907 34.1847 43.0907H39.6682C40.0002 43.0907 40.2722 42.8497 40.2722 42.5551V37.5021C40.2722 37.2075 40.0002 36.9665 39.6682 36.9665L39.6642 37.1463ZM24.6736 37.1463H30.1571C30.4891 37.1463 30.761 37.3873 30.761 37.6819V42.5551C30.761 42.8497 30.4891 43.0907 30.1571 43.0907H24.6736C24.3416 43.0907 24.0696 42.8497 24.0696 42.5551V37.6819C24.0736 37.3873 24.3416 37.1463 24.6736 37.1463ZM3.56351 18.2499H42.328C42.536 18.2499 42.7039 18.4182 42.7039 18.6095V44.5328C42.7039 44.724 42.528 44.8923 42.328 44.8923H3.19154C2.99156 44.8923 2.81558 44.7317 2.81558 44.5328V18.9652C2.81558 18.5713 3.15155 18.2499 3.56351 18.2499ZM32.2769 11.246C33.4328 11.246 34.3807 10.5307 34.3807 9.66623V5.77985L34.3687 5.62302H30.1891L30.1771 5.77985V9.66623C30.1771 10.5345 31.121 11.246 32.2769 11.246ZM12.6627 11.246C13.8186 11.246 14.7665 10.5307 14.7665 9.66623V5.77985L14.7545 5.62302H10.5709L10.5589 5.77985V9.66623C10.5589 10.5345 11.5028 11.246 12.6627 11.246Z" fill="url(#paint0_linear_85_554)"/>
<defs>
<linearGradient id="paint0_linear_85_554" x1="59.0772" y1="84.6083" x2="20.1373" y2="17.6577" gradientUnits="userSpaceOnUse">
<stop stop-color="#FFA500"/>
<stop offset="1" stop-color="#F2CC88"/>
</linearGradient>
</defs>
</svg>
