<svg width="53" height="52" viewBox="0 0 53 52" fill="none" xmlns="http://www.w3.org/2000/svg">
<g opacity="0.5">
<path fill-rule="evenodd" clip-rule="evenodd" d="M17.2803 18.8804H35.6155C40.7233 18.8804 44.8646 22.9303 44.8646 27.9255V38.622C44.8646 43.6171 40.7233 47.6671 35.6155 47.6671H17.2803C12.1725 47.6671 8.03125 43.6171 8.03125 38.622V27.9255C8.03125 22.9303 12.1725 18.8804 17.2803 18.8804ZM26.4369 37.5476C27.5157 37.5476 28.3743 36.7079 28.3743 35.6529V30.873C28.3743 29.8396 27.5157 28.9998 26.4369 28.9998C25.3801 28.9998 24.5215 29.8396 24.5215 30.873V35.6529C24.5215 36.7079 25.3801 37.5476 26.4369 37.5476Z" fill="url(#paint0_linear_85_563)"/>
<path opacity="0.4" d="M38.4142 16.0247V19.2113C37.6436 18.996 36.829 18.8883 35.9924 18.8883H34.5613V16.0247C34.5613 11.654 30.9286 8.10139 26.4593 8.10139C21.99 8.10139 18.3573 11.6324 18.3353 15.9817V18.8883H16.9262C16.0676 18.8883 15.253 18.996 14.4824 19.2328V16.0247C14.5044 9.56548 19.8544 4.3335 26.4153 4.3335C33.0642 4.3335 38.4142 9.56548 38.4142 16.0247Z" fill="url(#paint1_linear_85_563)"/>
</g>
<defs>
<linearGradient id="paint0_linear_85_563" x1="8.03125" y1="17.1128" x2="49.9261" y2="25.4182" gradientUnits="userSpaceOnUse">
<stop stop-color="#FFA500"/>
<stop offset="1" stop-color="#FBBC05"/>
</linearGradient>
<linearGradient id="paint1_linear_85_563" x1="14.4824" y1="3.41863" x2="41.1227" y2="10.0484" gradientUnits="userSpaceOnUse">
<stop stop-color="#FFA500"/>
<stop offset="1" stop-color="#FBBC05"/>
</linearGradient>
</defs>
</svg>
