<svg width="60" height="60" viewBox="0 0 60 60" fill="none" xmlns="http://www.w3.org/2000/svg">
<path d="M46.9614 10.7548H15.5844C15.2976 10.7548 15.0136 10.6983 14.7486 10.5886C14.4836 10.4788 14.2429 10.3179 14.0401 10.1151C13.8373 9.91231 13.6764 9.67155 13.5666 9.40658C13.4569 9.1416 13.4004 8.8576 13.4004 8.5708V8.5258C13.4004 7.94656 13.6305 7.39105 14.0401 6.98148C14.4496 6.5719 15.0052 6.3418 15.5844 6.3418H46.9614C47.5406 6.3418 48.0961 6.5719 48.5057 6.98148C48.9153 7.39105 49.1454 7.94656 49.1454 8.5258V8.5708C49.1454 9.15003 48.9153 9.70554 48.5057 10.1151C48.0961 10.5247 47.5406 10.7548 46.9614 10.7548Z" fill="white"/>
<path d="M44.9344 8.95521H13.4434C13.6324 9.97821 14.5294 10.7552 15.6094 10.7552H46.9414C47.2309 10.7552 47.5177 10.6982 47.7852 10.5874C48.0527 10.4766 48.2958 10.3141 48.5005 10.1094C48.7053 9.90463 48.8677 9.66155 48.9785 9.39403C49.0893 9.12651 49.1464 8.83978 49.1464 8.55021C49.1464 7.96541 48.9141 7.40456 48.5005 6.99104C48.087 6.57753 47.5262 6.34521 46.9414 6.34521H45.8614V7.95021C45.8614 8.33421 45.8614 8.95521 44.9344 8.95521Z" fill="white"/>
<path d="M46.9618 11.6552H12.9238C11.2228 11.6552 9.83984 10.2722 9.83984 8.57424V8.52924C9.83984 6.82824 11.2228 5.44824 12.9238 5.44824H46.9618C48.6628 5.44824 50.0458 6.83124 50.0458 8.52924V8.57424C50.0458 10.2722 48.6628 11.6552 46.9618 11.6552ZM12.9238 7.24524C12.2158 7.24524 11.6398 7.82124 11.6398 8.52624V8.57124C11.6398 9.27924 12.2158 9.85224 12.9238 9.85224H46.9618C47.6698 9.85224 48.2458 9.27624 48.2458 8.57124V8.52624C48.2458 7.81824 47.6698 7.24524 46.9618 7.24524H12.9238Z" fill="white"/>
<path d="M7.85754 22.881C6.51054 26.616 8.89554 30.765 12.7685 31.167C12.9785 31.188 13.1945 31.2 13.4105 31.2C16.2785 31.2 18.6935 29.22 19.4255 26.523C20.1575 29.22 22.5725 31.2 25.4405 31.2C28.3085 31.2 30.7235 29.22 31.4555 26.523C32.1875 29.22 34.6025 31.2 37.4705 31.2C40.3385 31.2 42.7535 29.22 43.4855 26.523C44.2175 29.22 46.6325 31.2 49.5005 31.2C49.6085 31.2 49.7165 31.197 49.8215 31.191C53.8475 30.981 56.4425 26.7 55.0205 22.836L52.2125 16.107C51.7895 15.096 50.8205 14.439 49.7465 14.439H13.0925C12.0125 14.439 11.0375 15.102 10.6205 16.125L7.85754 22.881Z" fill="white"/>
<path d="M51.4348 22.521C52.0528 24.021 51.7618 26.808 50.0218 27.909C48.6058 28.806 46.5058 28.935 43.5118 26.601C44.2708 29.256 46.6648 31.2 49.5028 31.2C49.6108 31.2 49.7188 31.197 49.8238 31.191C53.8528 30.981 56.4448 26.7 55.0228 22.836L52.2148 16.107C51.7918 15.096 50.8228 14.439 49.7488 14.439H47.7058C48.8668 16.911 50.9908 21.444 51.4348 22.521ZM37.4698 31.203C40.3198 31.203 42.7228 29.247 43.4698 26.574C43.2208 26.379 42.9658 26.169 42.7078 25.938C40.3288 29.13 35.9278 30.711 31.4548 26.526C32.1898 29.223 34.6018 31.203 37.4698 31.203ZM25.4398 31.203C28.3078 31.203 30.7228 29.223 31.4548 26.526C27.2728 29.361 23.2978 30.945 19.4218 26.526C20.1568 29.223 22.5718 31.203 25.4398 31.203ZM7.54183 24.153C7.06483 27.504 9.32983 30.81 12.7648 31.17C12.9748 31.191 13.1908 31.203 13.4068 31.203C16.2748 31.203 18.6898 29.223 19.4218 26.526C16.3048 28.359 8.12983 31.281 7.54183 24.153Z" fill="white"/>
<path d="M49.1461 32.0999C46.5151 32.0999 44.1181 30.7139 42.7651 28.5599C41.4151 30.7139 39.0181 32.0999 36.3841 32.0999C33.7501 32.0999 31.3561 30.7139 30.0031 28.5599C28.6531 30.7139 26.2561 32.0999 23.6221 32.0999C20.9881 32.0999 18.5941 30.7139 17.2411 28.5599C15.8971 30.7169 13.5001 32.0999 10.8661 32.0999C10.6081 32.0999 10.3471 32.0879 10.0951 32.0609C7.90809 31.8389 5.97909 30.6269 4.80009 28.7369C3.58209 26.7839 3.33909 24.4259 4.13409 22.2719C4.14009 22.2599 4.14309 22.2479 4.14909 22.2359L4.47909 21.4469C4.57139 21.2265 4.74746 21.0518 4.96856 20.9612C5.18967 20.8706 5.4377 20.8716 5.6581 20.9639C5.87849 21.0562 6.05319 21.2323 6.14377 21.4534C6.23435 21.6745 6.23339 21.9225 6.14109 22.1429L5.8171 22.9139C5.2231 24.5399 5.40909 26.3129 6.32709 27.7859C7.20909 29.1989 8.64909 30.1079 10.2781 30.2729C10.4701 30.2939 10.6681 30.3029 10.8661 30.3029C13.4251 30.3029 15.6931 28.5809 16.3801 26.1179C16.4323 25.928 16.5453 25.7604 16.702 25.641C16.8586 25.5216 17.0501 25.4569 17.2471 25.4569C17.4441 25.4569 17.6356 25.5216 17.7922 25.641C17.9488 25.7604 18.0619 25.928 18.1141 26.1179C18.7981 28.5809 21.0661 30.2999 23.6251 30.2999C26.1841 30.2999 28.4521 28.5779 29.1391 26.1149C29.1913 25.925 29.3043 25.7574 29.461 25.638C29.6176 25.5186 29.8091 25.4539 30.0061 25.4539C30.2031 25.4539 30.3946 25.5186 30.5512 25.638C30.7078 25.7574 30.8209 25.925 30.8731 26.1149C31.5601 28.5779 33.8251 30.2999 36.3871 30.2999C38.9461 30.2999 41.2141 28.5779 41.9011 26.1149C41.9533 25.925 42.0663 25.7574 42.223 25.638C42.3796 25.5186 42.5711 25.4539 42.7681 25.4539C42.9651 25.4539 43.1566 25.5186 43.3132 25.638C43.4698 25.7574 43.5829 25.925 43.6351 26.1149C44.3221 28.5779 46.5871 30.2999 49.1491 30.2999C49.2481 30.2999 49.3471 30.2969 49.4431 30.2939C51.1381 30.2069 52.6561 29.3279 53.6011 27.8819C54.5731 26.3969 54.7831 24.5249 54.1681 22.8719L51.1981 15.9209C51.0487 15.5706 50.7995 15.272 50.4815 15.0623C50.1636 14.8527 49.7909 14.7412 49.4101 14.7419H10.5331C9.7471 14.7419 9.04509 15.2099 8.74209 15.9359L8.46009 16.6109C8.3678 16.8313 8.19173 17.006 7.97063 17.0966C7.74952 17.1872 7.50149 17.1862 7.28109 17.0939C7.0607 17.0016 6.886 16.8255 6.79542 16.6044C6.70484 16.3833 6.7058 16.1353 6.7981 15.9149L7.0801 15.2399C7.36445 14.5587 7.84412 13.977 8.45862 13.568C9.07312 13.1591 9.79495 12.9412 10.5331 12.9419H49.4071C50.9071 12.9419 52.2601 13.8329 52.8481 15.2159L55.8271 22.1849C55.8331 22.1969 55.8361 22.2089 55.8421 22.2209C56.6701 24.4169 56.3941 26.9009 55.1041 28.8689C53.8381 30.8009 51.8071 31.9739 49.5301 32.0909C49.4041 32.0999 49.2751 32.0999 49.1461 32.0999Z" fill="white"/>
<path d="M6.36578 20.0248C6.24878 20.0248 6.13178 20.0008 6.01778 19.9558C5.90865 19.9101 5.80958 19.8434 5.72625 19.7594C5.64292 19.6754 5.57694 19.5758 5.53209 19.4663C5.48724 19.3569 5.46439 19.2396 5.46485 19.1213C5.46531 19.003 5.48907 18.8859 5.53478 18.7768L5.75678 18.2458C5.84907 18.0254 6.02514 17.8507 6.24624 17.7601C6.35572 17.7153 6.47297 17.6924 6.59128 17.6929C6.70959 17.6933 6.82665 17.7171 6.93578 17.7628C7.0449 17.8085 7.14396 17.8752 7.2273 17.9592C7.31063 18.0432 7.3766 18.1428 7.42146 18.2523C7.46631 18.3617 7.48915 18.479 7.48869 18.5973C7.48823 18.7156 7.46448 18.8327 7.41878 18.9418L7.19678 19.4728C7.1284 19.6367 7.01295 19.7766 6.86503 19.8749C6.7171 19.9731 6.54336 20.0253 6.36578 20.0248Z" fill="white"/>
<path d="M51.4343 35.4V49.482C51.4343 52.167 49.3883 54.342 46.8653 54.342H16.3463C13.8233 54.342 11.7773 52.167 11.7773 49.482V35.4C11.7773 35.4 15.0263 35.34 17.6393 32.01C19.8083 36.735 26.9333 37.779 29.3093 32.01C32.2523 37.833 41.4173 36.828 43.5863 31.665C45.8573 36.882 51.4343 35.4 51.4343 35.4Z" fill="#FFAC48"/>
<path d="M51.4354 49.4791V35.4001C51.4354 35.4001 49.6234 35.8801 47.6434 35.3281V46.2121C47.6434 49.5391 46.9474 51.0871 43.0774 51.0871H14.5264C13.6324 51.0871 12.6124 51.0061 11.8594 50.3701C12.2524 52.6321 14.1124 54.3451 16.3504 54.3451H46.8664C49.3894 54.3421 51.4354 52.1641 51.4354 49.4791Z" fill="#FC992D"/>
<path d="M8.56406 43.1279C8.06606 43.1279 7.66406 42.7259 7.66406 42.2279V41.5499C7.66406 41.0519 8.06606 40.6499 8.56406 40.6499C9.06206 40.6499 9.46406 41.0519 9.46406 41.5499V42.2279C9.46406 42.7259 9.06206 43.1279 8.56406 43.1279Z" fill="white"/>
<path d="M12.0478 22.6892C11.9243 22.6895 11.8026 22.6593 11.6935 22.6011C11.5845 22.543 11.4916 22.4588 11.423 22.3561C11.3544 22.2533 11.3122 22.1352 11.3004 22.0122C11.2885 21.8892 11.3072 21.7652 11.3548 21.6512L11.7358 20.7362C11.7736 20.6452 11.8289 20.5625 11.8987 20.4928C11.9685 20.4232 12.0513 20.368 12.1424 20.3304C12.2335 20.2927 12.3311 20.2735 12.4297 20.2736C12.5283 20.2738 12.6258 20.2933 12.7168 20.3312C13.1008 20.4902 13.2808 20.9282 13.1218 21.3122L12.7408 22.2272C12.6208 22.5152 12.3418 22.6892 12.0478 22.6892ZM13.3288 19.6142C13.2053 19.6145 13.0836 19.5843 12.9745 19.5261C12.8655 19.468 12.7726 19.3838 12.704 19.2811C12.6354 19.1783 12.5932 19.0602 12.5814 18.9372C12.5695 18.8142 12.5882 18.6902 12.6358 18.5762C12.7942 18.1928 13.063 17.8651 13.4081 17.6349C13.7532 17.4046 14.159 17.2822 14.5738 17.2832H22.7668C22.9657 17.2832 23.1565 17.3622 23.2972 17.5029C23.4378 17.6435 23.5168 17.8343 23.5168 18.0332C23.5168 18.2321 23.4378 18.4229 23.2972 18.5635C23.1565 18.7042 22.9657 18.7832 22.7668 18.7832H14.5708C14.3278 18.7832 14.1118 18.9272 14.0188 19.1522C13.9018 19.4402 13.6228 19.6142 13.3288 19.6142ZM14.7238 48.7772C14.6253 48.7772 14.5278 48.7578 14.4368 48.7201C14.3458 48.6824 14.2631 48.6272 14.1935 48.5575C14.1239 48.4879 14.0686 48.4052 14.0309 48.3142C13.9932 48.2232 13.9738 48.1257 13.9738 48.0272V46.7222C13.9738 46.5233 14.0528 46.3325 14.1935 46.1919C14.3341 46.0512 14.5249 45.9722 14.7238 45.9722C14.9227 45.9722 15.1135 46.0512 15.2542 46.1919C15.3948 46.3325 15.4738 46.5233 15.4738 46.7222V48.0272C15.4738 48.2261 15.3948 48.4169 15.2542 48.5575C15.1135 48.6982 14.9227 48.7772 14.7238 48.7772ZM14.7238 44.6612C14.6253 44.6612 14.5278 44.6418 14.4368 44.6041C14.3458 44.5664 14.2631 44.5112 14.1935 44.4415C14.1239 44.3719 14.0686 44.2892 14.0309 44.1982C13.9932 44.1072 13.9738 44.0097 13.9738 43.9112V39.4382C13.9738 39.2393 14.0528 39.0485 14.1935 38.9079C14.3341 38.7672 14.5249 38.6882 14.7238 38.6882C14.9227 38.6882 15.1135 38.7672 15.2542 38.9079C15.3948 39.0485 15.4738 39.2393 15.4738 39.4382V43.9112C15.4738 44.1101 15.3948 44.3009 15.2542 44.4415C15.1135 44.5822 14.9227 44.6612 14.7238 44.6612Z" fill="white"/>
<path d="M35.5223 54.342H26.8223V43.491C26.8223 42.138 27.9203 41.04 29.2733 41.04H33.0713C34.4243 41.04 35.5223 42.138 35.5223 43.491V54.342Z" fill="#F2CC88"/>
<path d="M33.8491 41.127C33.8491 41.127 33.8281 50.877 33.8491 51.681C33.8701 52.485 34.0501 53.622 32.2441 53.733H36.1471L35.8561 41.328L33.8491 41.127Z" fill="#F2CC88"/>
<path d="M51.9861 34.4128C51.8785 34.3286 51.7532 34.2699 51.6196 34.2414C51.486 34.2128 51.3477 34.215 51.2151 34.2478C50.9991 34.3018 45.8691 35.4958 43.7631 30.9478C43.6131 30.6268 43.2831 30.4258 42.9411 30.4258C42.5871 30.4288 42.2691 30.6358 42.1251 30.9598C41.1561 33.1258 39.0981 34.5268 36.7521 34.6138C34.2831 34.7008 32.0331 33.3178 30.7341 30.9028C30.5721 30.5998 30.2451 30.4198 29.9061 30.4288C29.5611 30.4438 29.2551 30.6508 29.1171 30.9658C28.1721 33.1228 26.3271 34.3858 24.0561 34.4338C21.5571 34.4818 19.1841 33.0778 18.1371 30.9328C18.0673 30.7891 17.9605 30.6666 17.8276 30.578C17.6947 30.4894 17.5405 30.4379 17.3811 30.4288C17.0541 30.4138 16.7451 30.5698 16.5711 30.8428C13.6341 35.4448 8.99306 34.3018 8.79806 34.2538C8.52806 34.1818 8.24006 34.2388 8.01806 34.4098C7.79606 34.5808 7.66706 34.8448 7.66706 35.1238V37.5478C7.66706 38.0458 8.06906 38.4478 8.56706 38.4478C9.06506 38.4478 9.46706 38.0458 9.46706 37.5478V36.1618C11.2131 36.2998 14.6331 36.0898 17.2671 32.9398C18.8211 35.0068 21.4071 36.2908 24.0951 36.2368C26.5671 36.1858 28.6521 35.0548 30.0021 33.0808C31.6851 35.2888 34.1541 36.5098 36.8211 36.4168C39.3081 36.3268 41.5431 35.0968 42.9591 33.1198C45.0171 35.9368 48.3081 36.4228 50.5341 36.1918V49.4068C50.5341 51.6328 48.7221 53.4478 46.4931 53.4478H37.0461V43.0498C37.0461 41.2018 35.5431 39.6988 33.6951 39.6988H27.3531C25.5051 39.6988 24.0021 41.2018 24.0021 43.0498V53.4478H13.5051C11.2791 53.4478 9.46406 51.6358 9.46406 49.4068V45.1528C9.46406 44.6548 9.06206 44.2528 8.56406 44.2528C8.06606 44.2528 7.66406 44.6548 7.66406 45.1528V49.4068C7.66406 52.6258 10.2831 55.2478 13.5051 55.2478H46.4931C49.7121 55.2478 52.3341 52.6288 52.3341 49.4068V35.1268C52.3341 34.8448 52.2051 34.5838 51.9861 34.4128ZM25.8021 53.4418V43.0438C25.8021 42.1888 26.4981 41.4928 27.3531 41.4928H33.6951C34.5501 41.4928 35.2461 42.1888 35.2461 43.0438V53.4418H25.8021Z" fill="white"/>
</svg>
