<svg width="37" height="46" viewBox="0 0 37 46" fill="none" xmlns="http://www.w3.org/2000/svg">
<path d="M18.4925 30.1431C8.60851 30.1431 0.166016 31.6731 0.166016 37.7931C0.166016 43.9153 8.55581 45.4993 18.4925 45.4993C28.3764 45.4993 36.8189 43.9716 36.8189 37.8493C36.8189 31.7271 28.4314 30.1431 18.4925 30.1431Z" fill="url(#paint0_linear_1014_658)"/>
<path opacity="0.4" d="M18.4927 24.3135C25.2257 24.3135 30.6202 19.0148 30.6202 12.4065C30.6202 5.79826 25.2257 0.499512 18.4927 0.499512C11.7621 0.499512 6.36523 5.79826 6.36523 12.4065C6.36523 19.0148 11.7621 24.3135 18.4927 24.3135Z" fill="url(#paint1_linear_1014_658)"/>
<defs>
<linearGradient id="paint0_linear_1014_658" x1="0.166016" y1="29.2001" x2="38.2815" y2="43.2955" gradientUnits="userSpaceOnUse">
<stop stop-color="#FFA500"/>
<stop offset="1" stop-color="#FBBC05"/>
</linearGradient>
<linearGradient id="paint1_linear_1014_658" x1="6.36523" y1="-0.962751" x2="34.3408" y2="3.45192" gradientUnits="userSpaceOnUse">
<stop stop-color="#FFA500"/>
<stop offset="1" stop-color="#FBBC05"/>
</linearGradient>
</defs>
</svg>
