<svg width="60" height="60" viewBox="0 0 60 60" fill="none" xmlns="http://www.w3.org/2000/svg">
<path d="M2.8125 27.6562V33.9844H8.20312V59.5312H51.5625V33.9844H57.1875V27.6562H2.8125ZM29.2031 54.0094H21.2414V47.543H29.2031V54.0094ZM29.2031 45.9492H21.2414V39.4828H29.2031V45.9492ZM23.8359 35.7422L26.6602 33.15L29.5992 38.2875L23.8359 35.7422ZM33.3492 33.15L36.1734 35.7422L30.4008 38.2875L33.3492 33.15ZM38.7586 54.0094H30.7969V47.543H38.7586V54.0094ZM38.7586 45.9492H30.7969V39.4828H38.7586V45.9492ZM36.5625 12.1875H23.2031C19.5492 12.1875 16.6406 15.3305 16.6406 18.9844V26.4844H21.3281V20.1562C21.3281 19.7555 21.6305 19.4531 22.0312 19.4531C22.432 19.4531 22.7344 19.7555 22.7344 20.1562V26.4844H37.0312V20.1562C37.0312 19.7555 37.3336 19.4531 37.7344 19.4531C38.1352 19.4531 38.4375 19.7555 38.4375 20.1562V26.4844H43.125V18.9844C43.125 15.3539 40.193 12.1875 36.5625 12.1875ZM29.8828 0.46875C26.9602 0.46875 24.5789 2.85 24.5789 5.77266C24.5789 8.69297 26.9367 11.0742 29.8828 11.0742C32.782 11.0742 35.1844 8.69297 35.1844 5.77266C35.1844 2.85 32.8055 0.46875 29.8828 0.46875Z" fill="white"/>
</svg>
