<svg width="363" height="342" viewBox="0 0 363 342" fill="none" xmlns="http://www.w3.org/2000/svg">
<circle cx="179.389" cy="196.273" r="141.401" fill="url(#paint0_linear_2_1351)"/>
<circle cx="349.282" cy="68.5901" r="13.718" fill="url(#paint1_linear_2_1351)"/>
<ellipse cx="22.1599" cy="21.1047" rx="22.1599" ry="21.1047" fill="url(#paint2_linear_2_1351)"/>
<ellipse cx="10.5523" cy="288.078" rx="10.5523" ry="11.6076" fill="url(#paint3_linear_2_1351)"/>
<ellipse cx="323.956" cy="337.675" rx="5.27616" ry="4.22093" fill="url(#paint4_linear_2_1351)"/>
<path d="M168.885 234.51C165.887 234.51 162.888 233.225 161.175 230.655L137.185 199.811C133.758 195.527 134.615 189.53 138.899 186.102C143.182 182.675 149.18 183.532 152.607 187.816L168.885 208.807L204.87 162.113C208.297 157.829 214.295 156.972 218.578 160.399C222.862 163.827 223.719 169.824 220.292 174.108L176.596 230.655C174.455 232.797 171.884 234.51 168.885 234.51Z" fill="white"/>
<circle cx="239.538" cy="218.433" r="5.27616" fill="white"/>
<circle cx="101.303" cy="160.395" r="8.44186" fill="white"/>
<circle cx="224.765" cy="115.02" r="3.1657" fill="white"/>
<circle cx="137.18" cy="263.808" r="4.22093" fill="white"/>
<circle cx="183.61" cy="162.506" r="2.11047" fill="white"/>
<defs>
<linearGradient id="paint0_linear_2_1351" x1="37.9883" y1="37.507" x2="364.457" y2="88.0885" gradientUnits="userSpaceOnUse">
<stop stop-color="#FFA500"/>
<stop offset="1" stop-color="#F2CC88"/>
</linearGradient>
<linearGradient id="paint1_linear_2_1351" x1="335.564" y1="53.1874" x2="367.237" y2="58.0946" gradientUnits="userSpaceOnUse">
<stop stop-color="#FFA500"/>
<stop offset="1" stop-color="#F2CC88"/>
</linearGradient>
<linearGradient id="paint2_linear_2_1351" x1="-6.28478e-08" y1="-2.5918" x2="51.0403" y2="5.71155" gradientUnits="userSpaceOnUse">
<stop stop-color="#FFA500"/>
<stop offset="1" stop-color="#F2CC88"/>
</linearGradient>
<linearGradient id="paint3_linear_2_1351" x1="-2.99275e-08" y1="275.045" x2="24.4629" y2="278.491" gradientUnits="userSpaceOnUse">
<stop stop-color="#FFA500"/>
<stop offset="1" stop-color="#F2CC88"/>
</linearGradient>
<linearGradient id="paint4_linear_2_1351" x1="318.68" y1="332.935" x2="330.703" y2="335.264" gradientUnits="userSpaceOnUse">
<stop stop-color="#FFA500"/>
<stop offset="1" stop-color="#F2CC88"/>
</linearGradient>
</defs>
</svg>
