<svg width="52" height="52" viewBox="0 0 52 52" fill="none" xmlns="http://www.w3.org/2000/svg">
<path d="M37.4095 22.1334C39.7194 22.1563 41.9283 23.0841 43.5617 24.7175C45.1952 26.351 46.123 28.5598 46.146 30.8697C46.1753 33.1502 45.2272 35.3294 43.6851 36.9481C42.0214 38.6943 39.7754 39.5758 37.4095 39.6062C33.9461 39.6507 33.9419 45.0254 37.4095 44.9809C45.1614 44.8812 51.4209 38.6216 51.5207 30.8697C51.6205 23.1172 45.0112 16.8563 37.4095 16.7586C33.9419 16.7141 33.9461 22.0889 37.4095 22.1334ZM14.4859 39.5741C12.1759 39.5512 9.96706 38.6234 8.33358 36.9899C6.70011 35.3565 5.7723 33.1476 5.74939 30.8376C5.72009 28.5571 6.66802 26.3779 8.2103 24.7589C9.87384 23.0127 12.1198 22.1316 14.4858 22.1011C17.9491 22.0566 17.9534 16.6817 14.4858 16.7264C6.73378 16.826 0.47428 23.0854 0.374647 30.8376C0.275014 38.59 6.8841 44.8512 14.4859 44.9488C17.9534 44.9933 17.9492 39.6186 14.4859 39.5741Z" fill="#FF650E"/>
<path d="M17.2495 19.5106C17.2723 17.2007 18.2001 14.9918 19.8335 13.3583C21.467 11.7249 23.6758 10.7971 25.9858 10.7743C28.2663 10.745 30.4455 11.693 32.0642 13.2352C33.8105 14.8988 34.6918 17.1446 34.7222 19.5106C34.7668 22.9738 40.1416 22.9781 40.0971 19.5106C39.9973 11.7587 33.7377 5.49918 25.9858 5.39955C18.2333 5.29992 11.9725 11.9088 11.8748 19.5106C11.8301 22.9781 17.205 22.9738 17.2495 19.5106Z" fill="#FFA500"/>
<path d="M27.6777 24.0236C28.5178 24.8636 28.5178 26.2252 27.6777 27.0652L21.4372 33.3059C20.5972 34.1458 19.2355 34.1458 18.3956 33.3059C17.5556 32.4657 17.5556 31.104 18.3956 30.2642L24.6363 24.0236C25.476 23.1835 26.8379 23.1835 27.6777 24.0236Z" fill="#F39A2B"/>
<path d="M24.6375 24.0235C25.4773 23.1836 26.8391 23.1836 27.6789 24.0235L33.9197 30.2643C34.7596 31.1038 34.7596 32.4658 33.9197 33.3059C33.0798 34.1457 31.7178 34.1457 30.878 33.3059L24.6375 27.0653C23.7973 26.2252 23.7973 24.8635 24.6375 24.0235Z" fill="#F39A2B"/>
<path d="M26.1041 32.2002C27.3214 32.2002 28.3081 33.187 28.3081 34.4041V43.4475C28.3081 44.6646 27.3213 45.6513 26.1041 45.6513C24.8872 45.6513 23.9004 44.6645 23.9004 43.4475V34.4041C23.9004 33.1869 24.8872 32.2002 26.1041 32.2002Z" fill="#F39A2B"/>
</svg>
