<svg width="39" height="39" viewBox="0 0 39 39" fill="none" xmlns="http://www.w3.org/2000/svg">
<path d="M29.0165 12.9564V11.6926C29.0165 9.92325 29.0165 9.03854 28.6721 8.36273C28.3693 7.76825 27.8859 7.28493 27.2915 6.98205C26.6157 6.6377 25.7309 6.6377 23.9615 6.6377H10.3764C8.60695 6.6377 7.72226 6.6377 7.04644 6.98205C6.45197 7.28493 5.96865 7.76825 5.66576 8.36273C5.32141 9.03854 5.32141 9.92325 5.32141 11.6926V12.9564M5.32141 12.9564V26.8575C5.32141 28.6269 5.32141 29.5116 5.66576 30.1874C5.96865 30.7819 6.45197 31.2652 7.04644 31.5681C7.72226 31.9124 8.60695 31.9124 10.3764 31.9124H28.7005C30.4699 31.9124 31.3547 31.9124 32.0305 31.5681C32.6249 31.2652 33.1083 30.7819 33.4111 30.1874C33.7555 29.5116 33.7555 28.6269 33.7555 26.8575V18.0113C33.7555 16.2419 33.7555 15.3572 33.4111 14.6814C33.1083 14.0869 32.6249 13.6036 32.0305 13.3007C31.3547 12.9564 30.4699 12.9564 28.7005 12.9564H5.32141ZM33.7555 19.2751H30.5961C28.8512 19.2751 27.4368 20.6895 27.4368 22.4344C27.4368 24.1793 28.8512 25.5937 30.5961 25.5937H33.7555" stroke="white" stroke-width="3" stroke-linecap="round" stroke-linejoin="round"/>
</svg>
